<svg viewBox="0 0 100 100" xmlns="http://www.w3.org/2000/svg">
  <!-- Background -->
  <circle cx="50" cy="50" r="45" fill="rgba(0, 0, 0, 0.15)" opacity="0.5" />
  
  <!-- Rocket body -->
  <path d="M50,10 C40,10 35,25 35,45 L35,70 L45,60 L50,70 L55,60 L65,70 L65,45 C65,25 60,10 50,10 Z" fill="none" stroke="lime" stroke-width="1" />
  
  <!-- Window -->
  <circle cx="50" cy="35" r="5" fill="none" stroke="lime" stroke-width="1" />
  
  <!-- Fins -->
  <path d="M35,60 L25,75 L35,70" fill="none" stroke="lime" stroke-width="1" />
  <path d="M65,60 L75,75 L65,70" fill="none" stroke="lime" stroke-width="1" />
  
  <!-- Flame -->
  <path d="M45,70 C45,80 50,85 50,90 C50,85 55,80 55,70" fill="none" stroke="lime" stroke-width="1" />
  
  <!-- Inner details -->
  <line x1="42" y1="20" x2="58" y2="20" stroke="lime" stroke-width="1" opacity="0.7" />
  <line x1="42" y1="25" x2="58" y2="25" stroke="lime" stroke-width="1" opacity="0.7" />
  
  <!-- Glass effect overlay -->
  <circle cx="50" cy="35" r="3" fill="rgba(255, 255, 255, 0.05)" />
  <ellipse cx="40" cy="40" rx="30" ry="25" fill="rgba(255, 255, 255, 0.05)" opacity="0.2" transform="rotate(-10 50 50)" />
</svg>